<svg width="147" height="28" viewBox="0 0 147 28" fill="none" xmlns="http://www.w3.org/2000/svg">
<path d="M17.2688 0.18075C7.22647 0.18075 0 5.42854 0 17.2087V27.9776H128.855C133.194 27.9776 137.03 26.9937 139.961 24.9027C143.811 22.1968 146.124 17.6187 146.124 10.9496V0.167084H17.2545V0.18075H17.2688Z" fill="#0099A8"/>
<path d="M53.6311 19.0536C53.6311 19.7643 53.7317 20.0786 54.0334 20.3793C54.3064 20.6526 54.6943 20.7892 55.1396 20.7892C56.0016 20.7892 56.5619 20.1059 56.5619 19.04V14.3662C56.5619 10.2527 53.746 7.79277 49.005 7.79277C44.6806 7.79277 41.52 10.526 41.52 14.2842C41.52 18.015 44.5944 20.8439 48.6746 20.8439C51.0595 20.8439 52.6973 19.8599 53.5593 18.999L53.6311 19.0536ZM48.9763 18.2473C46.2753 18.2473 44.3933 16.6347 44.3933 14.3662V14.3115C44.3933 12.0156 46.2753 10.4167 48.9763 10.4167C52.022 10.4167 53.7748 11.8243 53.7748 14.2842C53.7748 16.6484 51.7922 18.2473 48.9763 18.2473ZM70.0523 17.9057C69.1041 17.9057 68.5007 18.384 68.5007 19.1493C68.5007 19.8189 68.9892 20.3109 69.7793 20.4749C71.2016 20.7346 73.0262 20.7482 74.7646 20.7482C76.7185 20.7482 78.227 20.3656 79.247 19.5866C80.2383 18.8213 80.5831 17.851 80.5831 16.8124C80.5831 14.6122 78.8447 13.5325 74.5634 13.0132C71.9487 12.6989 71.374 12.4392 71.374 11.6056C71.374 11.018 71.7332 10.4713 74.3623 10.4713C75.8564 10.4713 77.0633 10.567 78.112 10.567C79.0602 10.567 79.678 10.075 79.678 9.30971C79.678 8.51707 79.0028 8.05242 77.7241 7.95676H77.6954C76.7903 7.9021 74.1468 7.84743 73.8595 7.8611C70.4833 7.8611 68.5438 9.24137 68.5438 11.6603C68.5438 14.0108 70.1385 15.1725 73.9026 15.5278C76.0145 15.7328 77.7672 15.9514 77.7672 16.8534C77.7672 17.7417 76.7185 18.138 74.3623 18.138C72.509 18.1517 70.8712 17.9057 70.0523 17.9057ZM105.624 10.4987C108.153 10.4987 109.36 11.5646 109.36 13.7375V19.0946C109.36 20.1606 109.949 20.8302 110.854 20.8302C111.587 20.8302 112.334 20.2836 112.334 19.081V13.3549C112.334 10.034 109.704 7.87476 105.639 7.87476C101.53 7.87476 98.8576 10.0203 98.8576 13.3549V19.122C98.8576 20.1879 99.4466 20.8576 100.352 20.8576C101.084 20.8576 101.832 20.3109 101.832 19.1083V13.7649C101.817 11.5919 103.096 10.4987 105.624 10.4987ZM60.2973 5.86584C59.3922 5.86584 58.8031 6.54915 58.8031 7.60144V16.7031C58.8031 19.3543 60.4553 20.7619 63.5873 20.7619C64.205 20.7619 64.7653 20.7072 65.2251 20.5979C66.2451 20.3929 66.7767 19.9556 66.7767 19.2586C66.7767 18.5753 66.3457 17.9604 65.1676 18.015C65.0383 18.015 63.9752 18.1107 63.6304 18.1107C62.05 18.1107 61.734 17.3317 61.734 16.1564V10.9496H64.8084C65.9721 10.9496 66.5755 10.4987 66.5755 9.67869C66.5755 8.88605 65.9147 8.42141 64.8084 8.42141H61.734V7.60144C61.7196 6.53548 61.1593 5.86584 60.2973 5.86584ZM89.4617 7.8201C85.1374 7.8201 81.9767 10.5533 81.9767 14.3115C81.9767 18.0834 85.123 20.8166 89.4617 20.8166C93.8005 20.8166 96.9468 18.0834 96.9468 14.3115C96.9181 10.5533 93.7861 7.8201 89.4617 7.8201ZM89.4617 18.2337C86.7464 18.2337 84.8357 16.6211 84.8357 14.3252C84.8357 12.0293 86.7321 10.4303 89.4617 10.4303C92.1771 10.4303 94.0878 12.0429 94.0878 14.3252C94.0735 16.6211 92.1627 18.2337 89.4617 18.2337ZM29.5237 14.1202L31.4345 18.8213C31.9373 20.0513 33.1442 20.8439 34.4803 20.8439C35.8882 20.8439 37.1094 20.0239 37.526 18.7393L40.4999 9.61036C40.7442 8.85872 40.2988 8.07976 39.523 7.84743C38.7759 7.62877 37.9283 8.01143 37.6697 8.77673L34.7245 17.7964C34.6814 17.933 34.5808 18.0287 34.4659 18.0287C34.351 18.0287 34.2504 17.9467 34.1929 17.7964L31.7218 11.7423C31.3483 10.8266 30.8742 9.67869 29.5094 9.67869C28.1445 9.67869 27.6704 10.8266 27.2969 11.7423L24.8258 17.7964C24.7683 17.933 24.6821 18.0287 24.5528 18.0287C24.4379 18.0287 24.3373 17.9467 24.2942 17.7964L21.3491 8.77673C21.1048 8.03876 20.3003 7.61511 19.4958 7.84743C18.7056 8.07976 18.2746 8.87239 18.5188 9.61036L21.4927 18.7393C21.9094 20.0239 23.1305 20.8439 24.5385 20.8439C25.8889 20.8439 27.0814 20.0376 27.5842 18.8213L29.5237 14.1202ZM119.991 18.1517C122.362 18.1517 123.396 17.7554 123.396 16.8671C123.396 15.9788 121.643 15.7328 119.531 15.5415C115.782 15.1861 114.173 14.0382 114.173 11.6739C114.173 9.26871 116.098 7.87476 119.474 7.87476C119.761 7.87476 122.405 7.91576 123.31 7.97043H123.339C124.617 8.06609 125.292 8.53074 125.292 9.32337C125.292 10.1023 124.675 10.5807 123.726 10.5807C122.692 10.5807 121.471 10.485 119.977 10.485C117.348 10.485 116.988 11.0316 116.988 11.6193C116.988 12.4529 117.592 12.7262 120.207 13.0269C124.473 13.5325 126.226 14.6395 126.226 16.8261C126.226 17.8647 125.881 18.835 124.89 19.6003C123.884 20.3656 122.376 20.7619 120.393 20.7619C118.641 20.7619 116.816 20.7482 115.408 20.4886C114.604 20.3519 114.129 19.8463 114.129 19.163C114.129 18.384 114.718 17.9194 115.681 17.9194C116.471 17.9057 118.123 18.1517 119.991 18.1517Z" fill="white"/>
<path d="M128.898 27.9776C133.251 27.9776 137.073 26.9937 140.004 24.9164H0V27.9776H128.898Z" fill="#E1251B"/>
</svg>
